<?xml version="1.0" encoding="utf-8"?>
<!-- Generator: Adobe Illustrator 20.1.0, SVG Export Plug-In . SVG Version: 6.00 Build 0)  -->
<svg version="1.1" id="Layer_1" xmlns="http://www.w3.org/2000/svg" xmlns:xlink="http://www.w3.org/1999/xlink" x="0px" y="0px"
	 width="432px" height="432.3px" viewBox="-143 -36.3 432 432.3" enable-background="new -143 -36.3 432 432.3"
	 xml:space="preserve">
<g>
	<g>
		<g>
			<polygon fill="#FDBE52" points="21.2,76.5 49.6,36.3 25.9,33.4 33.9,-6.7 5.9,49.3 28.6,49.3 			"/>
			<path fill="#FDBE52" d="M18.5,82.3l8.7-31.9h-23l32.5-65l-9.4,47.1l24.4,3L18.5,82.3z M7.7,48.2h22.4l-6.1,22.5l23.7-33.5
				l-23-2.8l6.6-33.1L7.7,48.2z"/>
		</g>
		<g>
			<polygon fill="#FDBE52" points="1.9,94.2 2,93.2 5.4,63 -5.3,69.7 -12.4,50.2 -13.3,82.2 -4.4,77 			"/>
			<path fill="#FDBE52" d="M2.5,99.2L-5,78.6l-9.5,5.5l1.1-39.8L-4.7,68l11.5-7.2L3,94.3L2.5,99.2z M-3.8,75.4l5.1,14L4,65.2
				l-9.9,6.2l-5.6-15.3l-0.7,24.2L-3.8,75.4z"/>
		</g>
		<g>
			<polygon fill="#FDBE52" points="34.6,95.8 55.5,81.1 47.6,79.5 60.3,64.5 35.7,82.3 45.3,83.8 			"/>
			<path fill="#FDBE52" d="M27.3,102.3l15.8-17.7L32.9,83l34.2-24.8L49.7,78.8l8.6,1.7L27.3,102.3z M38.5,81.6l8.9,1.4l-5.6,6.3
				l10.9-7.6l-7.2-1.5l8-9.4L38.5,81.6z"/>
		</g>
		<g>
			<polygon fill="#FDBE52" points="101.9,91 113,49.7 99.2,58.4 95.8,35 93.1,73.8 101.9,67.8 			"/>
			<path fill="#FDBE52" d="M100.8,99.5V69.9l-9,6.1l3.6-51.5l4.6,32l14.8-9.3L100.8,99.5z M103,65.7v16.9l8.2-30.4l-12.8,8.1
				l-2.2-14.8l-1.8,26.1L103,65.7z"/>
		</g>
		<g>
			<polygon fill="#FDBE52" points="116.5,77.4 132.2,56.2 133.4,66.6 145.1,58 130,78.1 128.6,68.7 			"/>
			<path fill="#FDBE52" d="M111.4,82.5L133,53.3l1.3,11.3l16.2-11.9l-21.2,28.3l-1.5-10.2L111.4,82.5z M129.4,66.7l1.3,8.6l9-11.9
				l-7.2,5.3l-1.1-9.5l-9.8,13.2L129.4,66.7z"/>
		</g>
		<g>
			<path fill="#D6D8DE" d="M128.9,299.3c45-32,32.5-111.9,20-159.4l-14.3,14.3C145.6,195.8,156.4,261.9,128.9,299.3z"/>
		</g>
		<g>
			<path fill="#E24243" d="M134.6,154.2l14.3-14.3c-5.8-22.2-11.6-37.3-11.6-37.3L123,116.7C123,116.7,128.8,131.9,134.6,154.2z"/>
		</g>
		<g>
			<polygon fill="#D83E40" points="137.3,102.6 98.8,113 84.5,127.1 123,116.7 			"/>
		</g>
		<g>
			<path fill="#EE4647" d="M134.6,154.2c-5.8-22.3-11.7-37.5-11.7-37.5l-21.5,5.8l-17,4.6c0,0,4.9,15.2,9.4,36.1
				c1.5-0.6,8.1-1.9,15.8-3.5C118.4,157.9,128.6,155.8,134.6,154.2z"/>
		</g>
		<g>
			<polygon fill="#D83E40" points="14.6,124.9 28.9,110.8 -4.9,110.7 -20.4,123.9 			"/>
		</g>
		<g>
			<path fill="#E0E2E8" d="M-23.3,162.5c-1.9,61,6.9,171.9,97.9,164.3c26-2.2,43.2-12.5,54.3-27.5c27.5-37.3,16.7-103.5,5.8-145.1
				c-5.6,1.6-16,3.9-24.9,5.7c-7.6,1.6-14.2,2.8-15.9,3.3c6.7,31.4,12.3,75.7-1.3,101.2c-5.3,10-13.6,17.1-26,19.4
				c-45.3,8.5-52.7-72.6-53-122.1c-7.2-0.1-21.9,0.4-21.9,0.4S-18.3,162.4-23.3,162.5z"/>
		</g>
		<g>
			<path fill="#D6D8DE" d="M66.6,283.7c12.3-2.3,20.6-9.4,26-19.4c-3.9,2.5-8.4,4.4-13.5,5.3C33.9,278,27.4,197.5,27.6,148
				l-13.9,13.6C13.9,211,21.3,292.2,66.6,283.7z"/>
		</g>
		<g>
			<path fill="#E24243" d="M14.6,124.9c0,0-1.2,15.4-1,36.7L27.5,148c0.1-21.5,1.4-37.2,1.4-37.2L14.6,124.9z"/>
		</g>
		<g>
			<path fill="#EE4647" d="M-23.3,162.5c5-0.1,10-0.3,15-0.5c0-0.1,14.6-0.8,21.9-0.4c-0.1-21.3,1-36.7,1-36.7l-21-0.6l-14-0.4
				C-20.4,123.9-22.6,139.7-23.3,162.5z"/>
		</g>
	</g>
	<g>
		<g>
			<circle fill="#F6FBFD" cx="73" cy="179.7" r="216"/>
		</g>
	</g>
	<g>
		<g>
			<polygon fill="#FDBE52" points="21.2,76.5 49.6,36.3 25.9,33.4 33.9,-6.7 5.9,49.3 28.6,49.3 			"/>
			<path fill="#FDBE52" d="M18.5,82.3l8.7-31.9h-23l32.5-65l-9.4,47.1l24.4,3L18.5,82.3z M7.7,48.2h22.4l-6.1,22.5l23.7-33.5
				l-23-2.8l6.6-33.1L7.7,48.2z"/>
		</g>
		<g>
			<polygon fill="#FDBE52" points="1.9,94.2 2,93.2 5.4,63 -5.3,69.7 -12.4,50.2 -13.3,82.2 -4.4,77 			"/>
			<path fill="#FDBE52" d="M2.5,99.2L-5,78.6l-9.5,5.5l1.1-39.8L-4.7,68l11.5-7.2L3,94.3L2.5,99.2z M-3.8,75.4l5.1,14L4,65.2
				l-9.9,6.2l-5.6-15.3l-0.7,24.2L-3.8,75.4z"/>
		</g>
		<g>
			<polygon fill="#FDBE52" points="34.6,95.8 55.5,81.1 47.6,79.5 60.3,64.5 35.7,82.3 45.3,83.8 			"/>
			<path fill="#FDBE52" d="M27.3,102.3l15.8-17.7L32.9,83l34.2-24.8L49.7,78.8l8.6,1.7L27.3,102.3z M38.5,81.6l8.9,1.4l-5.6,6.3
				l10.9-7.6l-7.2-1.5l8-9.4L38.5,81.6z"/>
		</g>
		<g>
			<polygon fill="#FDBE52" points="101.9,91 113,49.7 99.2,58.4 95.8,35 93.1,73.8 101.9,67.8 			"/>
			<path fill="#FDBE52" d="M100.8,99.5V69.9l-9,6.1l3.6-51.5l4.6,32l14.8-9.3L100.8,99.5z M103,65.7v16.9l8.2-30.4l-12.8,8.1
				l-2.2-14.8l-1.8,26.1L103,65.7z"/>
		</g>
		<g>
			<polygon fill="#FDBE52" points="116.5,77.4 132.2,56.2 133.4,66.6 145.1,58 130,78.1 128.6,68.7 			"/>
			<path fill="#FDBE52" d="M111.4,82.5L133,53.3l1.3,11.3l16.2-11.9l-21.2,28.3l-1.5-10.2L111.4,82.5z M129.4,66.7l1.3,8.6l9-11.9
				l-7.2,5.3l-1.1-9.5l-9.8,13.2L129.4,66.7z"/>
		</g>
		<g>
			<path fill="#D6D8DE" d="M128.9,299.3c45-32,32.5-111.9,20-159.4l-14.3,14.3C145.6,195.8,156.4,261.9,128.9,299.3z"/>
		</g>
		<g>
			<path fill="#E24243" d="M134.6,154.2l14.3-14.3c-5.8-22.2-11.6-37.3-11.6-37.3L123,116.7C123,116.7,128.8,131.9,134.6,154.2z"/>
		</g>
		<g>
			<polygon fill="#D83E40" points="137.3,102.6 98.8,113 84.5,127.1 123,116.7 			"/>
		</g>
		<g>
			<path fill="#EE4647" d="M134.6,154.2c-5.8-22.3-11.7-37.5-11.7-37.5l-21.5,5.8l-17,4.6c0,0,4.9,15.2,9.4,36.1
				c1.5-0.6,8.1-1.9,15.8-3.5C118.4,157.9,128.6,155.8,134.6,154.2z"/>
		</g>
		<g>
			<polygon fill="#D83E40" points="14.6,124.9 28.9,110.8 -4.9,110.7 -20.4,123.9 			"/>
		</g>
		<g>
			<path fill="#E0E2E8" d="M-23.3,162.5c-1.9,61,6.9,171.9,97.9,164.3c26-2.2,43.2-12.5,54.3-27.5c27.5-37.3,16.7-103.5,5.8-145.1
				c-5.6,1.6-39.1,8.5-40.8,9c6.7,31.4,12.3,75.7-1.3,101.2c-5.3,10-13.6,17.1-26,19.4c-45.3,8.5-52.7-72.6-53-122.1
				C6.4,161.5-18.3,162.4-23.3,162.5z"/>
		</g>
		<g>
			<path fill="#D6D8DE" d="M66.6,283.7c12.3-2.3,20.6-9.4,26-19.4c-3.9,2.5-8.4,4.4-13.5,5.3C33.9,278,27.4,197.5,27.6,148
				l-13.9,13.6C13.9,211,21.3,292.2,66.6,283.7z"/>
		</g>
		<g>
			<path fill="#E24243" d="M14.6,124.9c0,0-1.2,15.4-1,36.7L27.5,148c0.1-21.5,1.4-37.2,1.4-37.2L14.6,124.9z"/>
		</g>
		<g>
			<path fill="#EE4647" d="M-23.3,162.5c5-0.1,10-0.3,15-0.5c0-0.1,14.6-0.8,21.9-0.4c-0.1-21.3,1-36.7,1-36.7l-21-0.6l-14-0.4
				C-20.4,123.9-22.6,139.7-23.3,162.5z"/>
		</g>
	</g>
	<g>
		<path fill="#5FB8D1" d="M39.9,330.7l0.4,62.8c10.8,1.6,21.8,2.5,33,2.5c8,0,15.9-0.4,23.6-1.3l-0.4-64.4L39.9,330.7z"/>
	</g>
	<g>
		<path fill="#B0845A" d="M98.2,283.8v-15.7l0,0v-8c0-2.9-2.4-5.3-5.3-5.3H90c-2.9,0-5.3,2.4-5.3,5.3v8h-1.9v-8
			c0-2.9-2.4-5.3-5.3-5.3h-2.9c-2.9,0-5.3,2.4-5.3,5.3v8h-1.9v-8c0-2.9-2.4-5.3-5.3-5.3h-2.9c-2.9,0-5.3,2.4-5.3,5.3v8H52v-8
			c0-2.9-2.4-5.3-5.3-5.3h-2.9c-2.9,0-5.3,2.4-5.3,5.3v8h-0.1v36.5c0,1.1,0.9,2,2,2h0.3c1.1,0,2,0.9,2,2v23.9h51.4v-23.9
			c0-0.5,0.2-0.9,0.4-1.2h3.7c3.9,0,7.1-3.2,7.1-7.1v-9.5C105.3,286.9,102.1,283.8,98.2,283.8z"/>
	</g>
	<g>
		
			<rect x="40.2" y="320" transform="matrix(1 -6.117079e-03 6.117079e-03 1 -1.9964 0.4239)" fill="#195C6E" width="56.2" height="13.1"/>
	</g>
</g>
</svg>
