<svg xmlns="http://www.w3.org/2000/svg" viewBox="0 0 298.56 298.56"><title>maxwell-illustrative_icon-laptop_OE</title><circle cx="149.28" cy="149.28" r="149.28" style="fill:#f3f8fa"/><path d="M264.78,78.16a6.89,6.89,0,0,0-6.89-6.89H43.66a6.89,6.89,0,0,0-6.89,6.89V223.42h228Z" transform="translate(-1.68 -1)" style="fill:#373435"/><path d="M11.29,235H291a3.46,3.46,0,0,0,3.23-2.23H8.06A3.46,3.46,0,0,0,11.29,235Z" transform="translate(-1.68 -1)" style="fill:#a8aaad"/><path d="M264.78,223.41H7.84v9.38H294.4v-9.38Zm-135.7,2.09h48.1v2.62h-48.1Z" transform="translate(-1.68 -1)" style="fill:#ebecec"/><rect x="127.4" y="224.5" width="48.1" height="2.61" style="fill:#9d9e9d"/><path d="M45,80.91H257.2v133.8L45,214.9Z" transform="translate(-1.68 -1)" style="fill:#f4fafd"/><ellipse cx="261.15" cy="113.6" rx="14.35" ry="14.74" style="fill:#fff"/><path d="M263.11,93.61a19.47,19.47,0,1,0,18.95,19.46A19.2,19.2,0,0,0,263.11,93.61Zm-2.63,27.74-7.57-7.59h0l4-4,3.64,4,9.17-9.17,3.57,4Z" transform="translate(-1.68 -1)" style="fill:#82a140"/><path d="M61,90.6a6.78,6.78,0,1,0,6.78,6.78A6.78,6.78,0,0,0,61,90.6Zm4.28,8.05a15.12,15.12,0,0,1-3.8,3.46c-.5.38-1.51-.61-1.06-1a21.9,21.9,0,0,0,3.29-2.78c.72-.81,1.42-2.21.74-3.25-.45-.69-1.43-.26-2,.11a3.86,3.86,0,0,0-1.63,2c-.16.57-1-.07-1.11-.33a3.63,3.63,0,0,0-1.21-1.45c-.51-.34-1-.21-1.17.44a3.92,3.92,0,0,0,.36,2,10.49,10.49,0,0,0,.8,1.58c.14.2.33.6,0,.74s-.7-.13-.86-.36a9.79,9.79,0,0,1-1.23-2.49,3.49,3.49,0,0,1-.11-2.65c.52-1,1.72-.74,2.49-.2a6.56,6.56,0,0,1,1.2,1.1c1-1.76,3.53-3,5.08-1.21A3.39,3.39,0,0,1,65.31,98.65Z" transform="translate(-1.68 -1)" style="fill:#61bad0"/><path d="M78.91,99.36c.06.13.11.27.16.4l.15-.4.19-.38L83,92.48a.41.41,0,0,1,.2-.21,1,1,0,0,1,.29,0h1.06v10.59H83.28V95c0-.1,0-.21,0-.33s0-.24,0-.36L79.69,101a.58.58,0,0,1-.52.33H79a.56.56,0,0,1-.51-.33l-3.71-6.64c0,.13,0,.26,0,.38s0,.24,0,.34v7.78H73.53V92.23h1a1.08,1.08,0,0,1,.3,0,.45.45,0,0,1,.2.21L78.73,99A2.53,2.53,0,0,1,78.91,99.36Z" transform="translate(-1.68 -1)" style="fill:#61bad0"/><path d="M92,102.82h-.58a.68.68,0,0,1-.31-.06.36.36,0,0,1-.16-.25l-.14-.7c-.2.18-.39.34-.58.48a3,3,0,0,1-.59.35,3,3,0,0,1-.66.22,3.71,3.71,0,0,1-.78.07,2.76,2.76,0,0,1-.82-.12,1.92,1.92,0,0,1-.66-.36,1.88,1.88,0,0,1-.44-.62,2.21,2.21,0,0,1-.17-.89,1.63,1.63,0,0,1,.24-.85,2.16,2.16,0,0,1,.79-.73,5,5,0,0,1,1.42-.53,10.08,10.08,0,0,1,2.15-.2V98a2,2,0,0,0-.37-1.32,1.36,1.36,0,0,0-1.11-.45,2.29,2.29,0,0,0-.8.12,3,3,0,0,0-.57.27l-.42.27a.54.54,0,0,1-.34.13A.42.42,0,0,1,86.9,97a.55.55,0,0,1-.16-.18l-.24-.42a4.35,4.35,0,0,1,1.34-.89,4.09,4.09,0,0,1,1.59-.3,2.78,2.78,0,0,1,1.11.21,2.22,2.22,0,0,1,.82.58,2.35,2.35,0,0,1,.5.89A3.51,3.51,0,0,1,92,98ZM88.62,102a2.62,2.62,0,0,0,.64-.07,2.49,2.49,0,0,0,.54-.2,2.87,2.87,0,0,0,.49-.31,5.76,5.76,0,0,0,.45-.42V99.46a8.44,8.44,0,0,0-1.54.12,4.69,4.69,0,0,0-1,.3,1.43,1.43,0,0,0-.58.44.94.94,0,0,0-.18.56,1.29,1.29,0,0,0,.1.51.88.88,0,0,0,.26.36,1,1,0,0,0,.38.2A1.86,1.86,0,0,0,88.62,102Z" transform="translate(-1.68 -1)" style="fill:#61bad0"/><path d="M95.78,99l-2.52-3.64h1.26a.35.35,0,0,1,.37.2l1.83,2.8a2.5,2.5,0,0,1,.19-.41l1.61-2.37a1.17,1.17,0,0,1,.15-.16.29.29,0,0,1,.19-.06h1.21l-2.52,3.57,2.62,3.91H98.91a.36.36,0,0,1-.26-.09.9.9,0,0,1-.15-.19l-1.88-2.93a1.68,1.68,0,0,1-.16.39l-1.74,2.54a1.46,1.46,0,0,1-.16.19.29.29,0,0,1-.23.09H93.16Z" transform="translate(-1.68 -1)" style="fill:#61bad0"/><path d="M101,95.38h1.35a.55.55,0,0,1,.32.1.32.32,0,0,1,.13.24l.44,4c0,.21,0,.42,0,.63s0,.4,0,.61c.07-.21.14-.41.22-.61l.25-.63,1.62-4a.61.61,0,0,1,.19-.24.48.48,0,0,1,.29-.09h.76a.45.45,0,0,1,.3.09.41.41,0,0,1,.13.24l.62,4q.06.32.09.63c0,.2,0,.4.07.61,0-.21.11-.41.17-.61s.13-.42.21-.63l1.44-4a.55.55,0,0,1,.18-.24.54.54,0,0,1,.3-.1h1.3l-3.06,7.44H107c-.15,0-.24-.11-.28-.32L106,98.2a5.62,5.62,0,0,1-.06-.56c0,.1-.07.2-.1.29s-.07.19-.11.29l-1.77,4.28c-.09.21-.22.32-.38.32h-1.33Z" transform="translate(-1.68 -1)" style="fill:#61bad0"/><path d="M117.67,97.11a2.09,2.09,0,0,1-.2.91,1.87,1.87,0,0,1-.72.74,5,5,0,0,1-1.39.56,14.05,14.05,0,0,1-2.24.37v.1c0,1.17.49,1.75,1.48,1.75a2.43,2.43,0,0,0,.57-.06,2.16,2.16,0,0,0,.43-.15,2.59,2.59,0,0,0,.33-.19l.28-.2a1.65,1.65,0,0,1,.25-.15.6.6,0,0,1,.27-.06.38.38,0,0,1,.17,0,.33.33,0,0,1,.14.12l.46.55a8.66,8.66,0,0,1-.75.67,4.66,4.66,0,0,1-.76.46,3.5,3.5,0,0,1-.81.27,4.45,4.45,0,0,1-.93.09,3,3,0,0,1-1.18-.23,2.42,2.42,0,0,1-.91-.62,2.85,2.85,0,0,1-.58-1,3.64,3.64,0,0,1-.21-1.27,4.89,4.89,0,0,1,.13-1.15,5.18,5.18,0,0,1,.36-1.07,4.8,4.8,0,0,1,.59-.94,4.26,4.26,0,0,1,.79-.74,3.32,3.32,0,0,1,1-.48,3.48,3.48,0,0,1,1.13-.18,2.87,2.87,0,0,1,1,.17,2.17,2.17,0,0,1,.73.43,1.63,1.63,0,0,1,.44.59A1.53,1.53,0,0,1,117.67,97.11Zm-2.44-.58a1.54,1.54,0,0,0-.68.15,2,2,0,0,0-.56.41,2.66,2.66,0,0,0-.43.64,4.2,4.2,0,0,0-.3.82,11.6,11.6,0,0,0,1.45-.27,3.23,3.23,0,0,0,.85-.32.88.88,0,0,0,.39-.37.87.87,0,0,0,.1-.42.47.47,0,0,0,0-.22.6.6,0,0,0-.14-.21.87.87,0,0,0-.25-.15A1.08,1.08,0,0,0,115.23,96.53Z" transform="translate(-1.68 -1)" style="fill:#61bad0"/><path d="M118.34,102.82l1.3-10.77h1.76l-1.3,10.77Z" transform="translate(-1.68 -1)" style="fill:#61bad0"/><path d="M122,102.82l1.3-10.77H125l-1.3,10.77Z" transform="translate(-1.68 -1)" style="fill:#61bad0"/><path d="M129.79,90.82h.55v13.54h-.55Z" transform="translate(-1.68 -1)" style="fill:#61bad0"/><path d="M144.18,102.82h-1.34V98.36h-5.28v4.46h-1.33V93h1.33v4.37h5.28V93h1.34Z" transform="translate(-1.68 -1)" style="fill:#61bad0"/><path d="M149.08,95.78a3.06,3.06,0,0,1,1.15.21,2.54,2.54,0,0,1,.91.6,2.57,2.57,0,0,1,.6,1,3.81,3.81,0,0,1,.21,1.32.82.82,0,0,1-.06.38.26.26,0,0,1-.23.09h-4.61a3.91,3.91,0,0,0,.18,1.15,2.43,2.43,0,0,0,.45.81,1.8,1.8,0,0,0,.68.48,2.31,2.31,0,0,0,.89.16,2.62,2.62,0,0,0,.79-.1,4,4,0,0,0,.57-.23,3.32,3.32,0,0,0,.4-.23.56.56,0,0,1,.28-.11.26.26,0,0,1,.23.12l.34.44a2.07,2.07,0,0,1-.54.48,2.78,2.78,0,0,1-.67.33,4.76,4.76,0,0,1-.74.2,5,5,0,0,1-.76.06,3.52,3.52,0,0,1-1.32-.24,2.83,2.83,0,0,1-1.05-.71,3.25,3.25,0,0,1-.69-1.16,4.83,4.83,0,0,1-.24-1.59,4,4,0,0,1,.22-1.35,3.11,3.11,0,0,1,.64-1.09,2.84,2.84,0,0,1,1-.73A3.25,3.25,0,0,1,149.08,95.78Zm0,.89a1.87,1.87,0,0,0-1.39.51,2.37,2.37,0,0,0-.63,1.42h3.77a2.37,2.37,0,0,0-.12-.78,1.6,1.6,0,0,0-.89-1A1.91,1.91,0,0,0,149.11,96.67Z" transform="translate(-1.68 -1)" style="fill:#61bad0"/><path d="M158.55,102.82H158a.58.58,0,0,1-.28-.06c-.08,0-.12-.11-.15-.23l-.13-.64c-.19.16-.36.31-.54.44a3,3,0,0,1-.54.33,4.08,4.08,0,0,1-.62.2,3.82,3.82,0,0,1-.72.07,2.27,2.27,0,0,1-.75-.12,1.7,1.7,0,0,1-.62-.34,1.61,1.61,0,0,1-.41-.57,2.07,2.07,0,0,1-.15-.82,1.5,1.5,0,0,1,.22-.79,1.94,1.94,0,0,1,.73-.68,4.47,4.47,0,0,1,1.32-.48,8.66,8.66,0,0,1,2-.19v-.55a1.9,1.9,0,0,0-.35-1.23,1.27,1.27,0,0,0-1-.41,2.28,2.28,0,0,0-.75.11,3.76,3.76,0,0,0-.53.25l-.38.26a.59.59,0,0,1-.32.11.37.37,0,0,1-.21-.06.61.61,0,0,1-.15-.17l-.22-.39a4.05,4.05,0,0,1,1.24-.82,3.67,3.67,0,0,1,1.47-.28,2.74,2.74,0,0,1,1,.19,2.1,2.1,0,0,1,.76.54,2.25,2.25,0,0,1,.47.83,3.57,3.57,0,0,1,.15,1.06Zm-3.16-.75A2.68,2.68,0,0,0,156,102a2.82,2.82,0,0,0,.51-.19,3.79,3.79,0,0,0,.45-.29,3.74,3.74,0,0,0,.42-.39V99.71a8.23,8.23,0,0,0-1.43.11,3.81,3.81,0,0,0-1,.28,1.31,1.31,0,0,0-.54.4.89.89,0,0,0-.16.52,1.34,1.34,0,0,0,.08.48,1,1,0,0,0,.24.33,1,1,0,0,0,.36.18A1.56,1.56,0,0,0,155.39,102.07Z" transform="translate(-1.68 -1)" style="fill:#61bad0"/><path d="M161.72,92.74v10.08H160.5V92.74Z" transform="translate(-1.68 -1)" style="fill:#61bad0"/><path d="M165.92,102.93a1.69,1.69,0,0,1-1.26-.46,1.86,1.86,0,0,1-.44-1.32V96.91h-.84a.29.29,0,0,1-.18-.07.25.25,0,0,1-.08-.2v-.49l1.14-.14.28-2.14a.26.26,0,0,1,.09-.17.29.29,0,0,1,.19-.06h.62V96h2v.89h-2v4.15a.88.88,0,0,0,.21.65.71.71,0,0,0,.55.22,1.14,1.14,0,0,0,.33-.05l.24-.12.17-.11a.31.31,0,0,1,.13-.05.21.21,0,0,1,.17.11l.36.59a2.31,2.31,0,0,1-.76.46A2.63,2.63,0,0,1,165.92,102.93Z" transform="translate(-1.68 -1)" style="fill:#61bad0"/><path d="M168.88,102.82V92.74h1.22v4.08a3.74,3.74,0,0,1,1-.76,2.88,2.88,0,0,1,2.24-.1,2,2,0,0,1,.73.54,2.44,2.44,0,0,1,.44.83,3.59,3.59,0,0,1,.15,1.07v4.42h-1.22V98.4a1.87,1.87,0,0,0-.36-1.22,1.31,1.31,0,0,0-1.09-.43,2,2,0,0,0-1,.26,3.52,3.52,0,0,0-.87.7v5.11Z" transform="translate(-1.68 -1)" style="fill:#61bad0"/><circle cx="208.51" cy="156.34" r="28.21" style="fill:#f7e7dc"/><path d="M211,129.46a28.2,28.2,0,0,1,23.82,14.32" transform="translate(-1.68 -1)" style="fill:none;stroke:#dd7f36;stroke-miterlimit:10;stroke-width:4.876691891077813px"/><circle cx="87.64" cy="156.81" r="27.43" style="fill:#eadfee"/><path d="M89.12,130.38a27.43,27.43,0,1,1-9.3,53.24" transform="translate(-1.68 -1)" style="fill:none;stroke:#915682;stroke-miterlimit:10;stroke-width:4.742251087104095px"/><circle cx="148.4" cy="157.53" r="41.06" style="fill:#eaf2df"/><path d="M151.48,117.66a41.08,41.08,0,0,1,38,50.65" transform="translate(-1.68 -1)" style="fill:none;stroke:#82a140;stroke-miterlimit:10;stroke-width:7.098464673611343px"/><circle cx="148.4" cy="148.62" r="9.06" style="fill:#15677e"/><path d="M133.89,173.93c0-9.43,7.24-17.38,16.18-17.38s16.19,7.64,16.19,17.08" transform="translate(-1.68 -1)" style="fill:#15677e"/><path d="M133.89,173.93l32.37-.09a19.15,19.15,0,0,0-3.2-10.4S154.18,173.45,133.89,173.93Z" transform="translate(-1.68 -1)" style="fill:#0f5a6d"/></svg>