<?xml version="1.0" encoding="utf-8"?>
<!-- Generator: Adobe Illustrator 19.1.0, SVG Export Plug-In . SVG Version: 6.00 Build 0)  -->
<svg version="1.1" class="access" xmlns="http://www.w3.org/2000/svg" xmlns:xlink="http://www.w3.org/1999/xlink" x="0px" y="0px"
	 viewBox="0 0 287.2 287.2" style="enable-background:new 0 0 287.2 287.2;" xml:space="preserve">
<style type="text/css">
	.at0{fill:#EEF6F7;}
	.at1{fill:#FCBF53;}
	.at2{fill:#FCCD65;}
	.at3{fill:#EEEDF0;}
	.at4{fill:#B3C375;}
	.at5{fill:#F1E8E0;}
	.at6{fill:#F2852F;}
	.at7{fill:none;stroke:#FCBF53;stroke-width:7.8983;stroke-miterlimit:10;}
	.at8{fill:none;stroke:#EEEDF0;stroke-width:13.1638;stroke-miterlimit:10;}
	.at9{fill:#EF4647;}
	.at10{fill:#105A6E;}
	.at11{fill:#BBBDBF;}
	.at12{fill:#FFFFFF;}
	.at13{fill:#5FBAD2;}
	.at14{fill:#FCBF53;stroke:#FCBF53;stroke-width:11.2746;stroke-linecap:round;stroke-miterlimit:10;}
	.at15{fill:#FCBF53;stroke:#FCBF53;stroke-width:4.0266;stroke-linejoin:round;stroke-miterlimit:10;}
	.at16{fill:none;stroke:#083C4A;stroke-width:3;stroke-linecap:round;stroke-miterlimit:10;stroke-dasharray:1.144,6.8628;}
	.at17{fill:#BB8CAD;}
	.at18{fill:none;stroke:#BB8CAD;stroke-width:4.5386;stroke-miterlimit:10;}
	.at19{fill:#333333;}
	.at20{fill:none;stroke:#FCBF53;stroke-width:7.486;stroke-miterlimit:10;}
	.at21{fill:none;stroke:#EEF6F7;stroke-width:12.4766;stroke-miterlimit:10;}
	.at22{fill:#58585A;}
	.at23{fill:#9F9F9F;}
	.at24{fill:#383535;}
	.at25{fill:#AAABAF;}
	.at26{fill:#E7E7E7;}
	.at27{fill:#BFBFBF;}
	.at28{fill:#FFFFFF;fill-opacity:0.14;}
	.at29{fill:#383535;stroke:#383535;stroke-width:0.2437;stroke-miterlimit:10;}
	.at30{fill:#FFFFFF;stroke:#3F3F41;stroke-width:0.2437;stroke-miterlimit:10;}
	.at31{fill:none;stroke:#9F9F9F;stroke-width:0.4874;stroke-miterlimit:10;}
	.at32{fill:#FFFFFF;stroke:#3F3F41;stroke-width:0.1476;stroke-miterlimit:10;}
	.at33{fill:#F3F8FA;}
	.at34{fill:none;stroke:#105A6E;stroke-width:6;stroke-miterlimit:10;}
	.at35{fill:#18687E;}
	.at36{fill:#165B6F;}
	.at37{fill:#F7F8FC;}
	.at38{fill:#83A241;}
	.at39{fill:none;stroke:#105A6E;stroke-width:5;stroke-linecap:round;stroke-miterlimit:10;}
	.at40{fill:none;stroke:#282828;stroke-width:2;stroke-miterlimit:10;}
	.at41{fill:none;stroke:#105A6E;stroke-width:8.9751;stroke-miterlimit:10;}
	.at42{fill:#083C4A;}
	.at43{fill:none;stroke:#282828;stroke-width:2;stroke-linecap:round;stroke-miterlimit:10;}
	.at44{fill:#282828;}
	.at45{fill:none;stroke:#083C4A;stroke-width:5;stroke-miterlimit:10;stroke-dasharray:4,5;}
	.at46{fill:#EAF5F7;}
	.at47{fill:#CBDE6F;}
	.at48{fill:#F26A21;}
	.at49{fill:none;stroke:#FBBF55;stroke-width:5.2666;stroke-linecap:round;stroke-miterlimit:10;}
</style>
<g id="year-round_engagement">
	<g id="access-3">
		<circle class="at0" cx="143.6" cy="143.6" r="143.6"/>
		<g>
			<path class="at19" d="M231.8,84.3c0-2.5-2-4.5-4.5-4.5H50.4c-2.5,0-4.5,2-4.5,4.5V186h0v8.1c0,1.5,2,2.8,4.5,2.8H121l-0.5,8.6
				c0,0-3.2,5.7-5.4,7.4c-1.2,1-5.8,4.7-5.8,4.7s-0.7,0.5-0.6,0.9c0,0,0.9,0.6,3.1,0.7h54.3c2.2-0.1,3.1-0.7,3.1-0.7
				c0.1-0.3-0.6-0.9-0.6-0.9s-4.6-3.7-5.8-4.7c-2.3-1.7-5.4-7.4-5.4-7.4l-0.5-8.6h70.5c2.5,0,4.5-1.3,4.5-2.8v-3.5h0V84.3z"/>
			<path class="at22" d="M139.5,82.7c0,0.4-0.3,0.6-0.6,0.6c-0.4,0-0.6-0.3-0.6-0.6c0-0.4,0.3-0.6,0.6-0.6
				C139.3,82.1,139.5,82.4,139.5,82.7"/>
			<rect x="52.5" y="87.2" class="at12" width="172.6" height="97.1"/>
		</g>
		<path id="logo_8_" class="at13" d="M138.3,107.3c-16.8,0-30.4,13.6-30.4,30.4c0,16.8,13.6,30.4,30.4,30.4
			c16.8,0,30.4-13.6,30.4-30.4C168.6,120.9,155,107.3,138.3,107.3z M157.4,143.4c-4.1,6.4-11.1,11-17,15.5c-2.2,1.7-6.8-2.8-4.8-4.3
			c5.1-3.9,10.5-7.7,14.8-12.5c3.2-3.6,6.4-9.9,3.3-14.6c-2-3.1-6.4-1.1-8.9,0.5c-3.2,2.1-6.2,5.4-7.3,9.2c-0.7,2.5-4.4-0.3-5-1.5
			c-1.2-2.4-3.1-5-5.4-6.5c-2.3-1.5-4.7-0.9-5.2,2c-0.6,3,0.6,6.4,1.6,9.2c0.9,2.3,2.6,5.6,3.6,7.1c0.6,0.9,1.5,2.7,0,3.3
			c-1.3,0.6-3.1-0.6-3.8-1.6c-2.4-3.4-4.2-7.2-5.5-11.1c-1.2-3.6-2.5-8.3-0.5-11.9c2.4-4.3,7.7-3.3,11.2-0.9c2,1.4,3.8,3.1,5.4,4.9
			c4.6-7.9,15.8-13.3,22.8-5.4C161.4,130.1,161.2,137.5,157.4,143.4z"/>
		<g>
			<path class="at19" d="M238,127.3c3.6,0,4.6,2.1,4.6,4.1l-0.1,83.7c0,2-0.4,4.1-4.5,4.1h-52.7c-4.6,0-4.6-2.9-4.6-4.2l0-83.5
				c0-2,1.7-4.1,4.3-4.1L238,127.3z"/>
			<rect x="183.8" y="136.4" class="at32" width="55.7" height="73.7"/>
		</g>
		<g>
			<path class="at19" d="M200,154.1h-0.3h-20.8c-2.7,0-4.4,2.2-4.4,4.2l0,56.6c0,1.2,0,4.2,4.7,4.2H200c4.2,0,4.6-2.1,4.6-4.1
				l0.1-56.7c0-1.7-0.7-3.4-3-4C201.3,154.1,200.7,154.1,200,154.1"/>
			<rect x="176" y="161.4" class="at12" width="27.3" height="50"/>
		</g>
	</g>
</g>
<g id="ben_admin__x26__hr">
</g>
<g id="marketplace">
</g>
</svg>
